<svg width="44" height="43" viewBox="0 0 44 43" fill="none" xmlns="http://www.w3.org/2000/svg">
<g filter="url(#filter0_d_1_260)">
<rect x="4" width="35.065" height="35" rx="13.8542" fill="#4D8DFF"/>
<rect x="5.45833" y="1.45833" width="32.1483" height="32.0833" rx="12.3958" stroke="white" stroke-width="2.91667"/>
<rect x="5.45833" y="1.45833" width="32.1483" height="32.0833" rx="12.3958" stroke="#4D8DFF" stroke-width="2.91667"/>
</g>
<path d="M29.8136 12.2393C29.5007 11.9202 28.9932 11.9202 28.6802 12.2393L19.0779 22.0277L15.3869 18.2653C15.0739 17.9462 14.5665 17.9462 14.2534 18.2653C13.9404 18.5843 13.9404 19.1016 14.2534 19.4207L18.5111 23.7608C18.824 24.0798 19.6446 23.7608 19.6446 23.7608L29.8136 13.3947C29.8136 13.3947 30.1266 12.5584 29.8136 12.2393Z" fill="white"/>
<defs>
<filter id="filter0_d_1_260" x="0" y="0" width="43.0649" height="43" filterUnits="userSpaceOnUse" color-interpolation-filters="sRGB">
<feFlood flood-opacity="0" result="BackgroundImageFix"/>
<feColorMatrix in="SourceAlpha" type="matrix" values="0 0 0 0 0 0 0 0 0 0 0 0 0 0 0 0 0 0 127 0" result="hardAlpha"/>
<feOffset dy="4"/>
<feGaussianBlur stdDeviation="2"/>
<feComposite in2="hardAlpha" operator="out"/>
<feColorMatrix type="matrix" values="0 0 0 0 0 0 0 0 0 0 0 0 0 0 0 0 0 0 0.25 0"/>
<feBlend mode="normal" in2="BackgroundImageFix" result="effect1_dropShadow_1_260"/>
<feBlend mode="normal" in="SourceGraphic" in2="effect1_dropShadow_1_260" result="shape"/>
</filter>
</defs>
</svg>
